<?xml version="1.0" encoding="UTF-8" standalone="no"?>
<!-- Created with Inkscape (http://www.inkscape.org/) -->

<svg
   width="66.30246mm"
   height="66.302109mm"
   viewBox="0 0 66.30246 66.302109"
   version="1.1"
   id="svg5"
   xml:space="preserve"
   xmlns:inkscape="http://www.inkscape.org/namespaces/inkscape"
   xmlns:sodipodi="http://sodipodi.sourceforge.net/DTD/sodipodi-0.dtd"
   xmlns="http://www.w3.org/2000/svg"
   xmlns:svg="http://www.w3.org/2000/svg"><sodipodi:namedview
     id="namedview7"
     pagecolor="#ffffff"
     bordercolor="#000000"
     borderopacity="0.25"
     inkscape:showpageshadow="2"
     inkscape:pageopacity="0.0"
     inkscape:pagecheckerboard="0"
     inkscape:deskcolor="#d1d1d1"
     inkscape:document-units="mm"
     showgrid="false" /><defs
     id="defs2"><clipPath
       clipPathUnits="userSpaceOnUse"
       id="clipPath150"><path
         d="M 0,500 H 500 V 0 H 0 Z"
         id="path148" /></clipPath></defs><g
     id="g144"
     transform="matrix(0.35277776,0,0,-0.35277778,-55.748755,117.11224)"><g
       id="g146"
       clip-path="url(#clipPath150)"><g
         id="g152"
         transform="translate(408,249)" /><g
         id="g156"
         transform="translate(352.9717,232)" /><g
         id="g160"
         transform="translate(343.4717,238)"><path
           d="m 0,0 c 0,-50.519 -40.953,-91.472 -91.472,-91.472 -50.518,0 -91.471,40.953 -91.471,91.472 0,50.519 40.953,91.472 91.471,91.472 C -40.953,91.472 0,50.519 0,0"
           style="fill:#decdc0;fill-opacity:1;fill-rule:nonzero;stroke:none"
           id="path162"
           inkscape:export-filename="path162.svg"
           inkscape:export-xdpi="96"
           inkscape:export-ydpi="96" /></g><g
         id="g164"
         transform="translate(252,326.9717)"><path
           d="m 0,0 c -49.059,0 -88.972,-39.913 -88.972,-88.972 0,-49.059 39.913,-88.971 88.972,-88.971 49.06,0 88.972,39.912 88.972,88.971 C 88.972,-39.913 49.06,0 0,0 m 0,-182.943 c -51.816,0 -93.972,42.155 -93.972,93.971 C -93.972,-37.156 -51.816,5 0,5 51.816,5 93.972,-37.156 93.972,-88.972 93.972,-140.788 51.816,-182.943 0,-182.943"
           style="fill:#585da4;fill-opacity:1;fill-rule:nonzero;stroke:none"
           id="path166"
           inkscape:export-filename="path166.svg"
           inkscape:export-xdpi="96"
           inkscape:export-ydpi="96" /></g><g
         id="g168"
         transform="translate(252,169.667)"><path
           d="M 0,0 V -11.334"
           style="fill:#decdc0;fill-opacity:1;fill-rule:nonzero;stroke:none"
           id="path170" /></g><g
         id="g172"
         transform="translate(252,155.833)"><path
           d="m 0,0 c -1.381,0 -2.5,1.119 -2.5,2.5 v 11.334 c 0,1.381 1.119,2.5 2.5,2.5 1.381,0 2.5,-1.119 2.5,-2.5 V 2.5 C 2.5,1.119 1.381,0 0,0"
           style="fill:#585da4;fill-opacity:1;fill-rule:nonzero;stroke:none"
           id="path174" /></g><g
         id="g176"
         transform="translate(252,317.6665)"><path
           d="M 0,0 V -10.667"
           style="fill:#decdc0;fill-opacity:1;fill-rule:nonzero;stroke:none"
           id="path178" /></g><g
         id="g180"
         transform="translate(252,304.5)"><path
           d="m 0,0 c -1.381,0 -2.5,1.119 -2.5,2.5 v 10.667 c 0,1.38 1.119,2.5 2.5,2.5 1.381,0 2.5,-1.12 2.5,-2.5 V 2.5 C 2.5,1.119 1.381,0 0,0"
           style="fill:#585da4;fill-opacity:1;fill-rule:nonzero;stroke:none"
           id="path182" /></g><g
         id="g184"
         transform="translate(203.6812,189.6807)"><path
           d="M 0,0 -8.014,-8.014"
           style="fill:#decdc0;fill-opacity:1;fill-rule:nonzero;stroke:none"
           id="path186" /></g><g
         id="g188"
         transform="translate(195.667,179.167)"><path
           d="m 0,0 c -0.64,0 -1.28,0.244 -1.768,0.732 -0.976,0.977 -0.976,2.56 0,3.536 l 8.015,8.013 c 0.975,0.977 2.559,0.977 3.535,0 0.976,-0.976 0.976,-2.559 0,-3.535 L 1.768,0.732 C 1.28,0.244 0.64,0 0,0"
           style="fill:#585da4;fill-opacity:1;fill-rule:nonzero;stroke:none"
           id="path190" /></g><g
         id="g192"
         transform="translate(308.333,294.333)"><path
           d="M 0,0 -7.543,-7.542"
           style="fill:#decdc0;fill-opacity:1;fill-rule:nonzero;stroke:none"
           id="path194" /></g><g
         id="g196"
         transform="translate(300.79,284.2905)"><path
           d="m 0,0 c -0.64,0 -1.279,0.244 -1.768,0.732 -0.976,0.976 -0.976,2.56 0,3.536 l 7.543,7.543 c 0.977,0.975 2.559,0.976 3.536,-10e-4 0.976,-0.976 0.976,-2.559 0,-3.536 L 1.768,0.732 C 1.279,0.244 0.64,0 0,0"
           style="fill:#585da4;fill-opacity:1;fill-rule:nonzero;stroke:none"
           id="path198" /></g><g
         id="g200"
         transform="translate(183.667,238)"><path
           d="M 0,0 H -11.333"
           style="fill:#decdc0;fill-opacity:1;fill-rule:nonzero;stroke:none"
           id="path202" /></g><g
         id="g204"
         transform="translate(183.667,235.5)"><path
           d="m 0,0 h -11.333 c -1.381,0 -2.5,1.119 -2.5,2.5 0,1.381 1.119,2.5 2.5,2.5 H 0 C 1.381,5 2.5,3.881 2.5,2.5 2.5,1.119 1.381,0 0,0"
           style="fill:#585da4;fill-opacity:1;fill-rule:nonzero;stroke:none"
           id="path206" /></g><g
         id="g208"
         transform="translate(331.667,238)"><path
           d="M 0,0 H -10.667"
           style="fill:#decdc0;fill-opacity:1;fill-rule:nonzero;stroke:none"
           id="path210" /></g><g
         id="g212"
         transform="translate(331.667,235.5)"><path
           d="m 0,0 h -10.667 c -1.381,0 -2.5,1.119 -2.5,2.5 0,1.381 1.119,2.5 2.5,2.5 H 0 C 1.381,5 2.5,3.881 2.5,2.5 2.5,1.119 1.381,0 0,0"
           style="fill:#585da4;fill-opacity:1;fill-rule:nonzero;stroke:none"
           id="path214" /></g><g
         id="g216"
         transform="translate(203.6812,286.3188)"><path
           d="M 0,0 -8.014,8.014"
           style="fill:#decdc0;fill-opacity:1;fill-rule:nonzero;stroke:none"
           id="path218" /></g><g
         id="g220"
         transform="translate(203.6812,283.8188)"><path
           d="m 0,0 c -0.64,0 -1.28,0.244 -1.768,0.732 l -8.014,8.015 c -0.976,0.976 -0.976,2.559 0,3.535 0.976,0.976 2.56,0.976 3.535,0 L 1.768,4.268 C 2.744,3.292 2.744,1.708 1.768,0.732 1.28,0.244 0.64,0 0,0"
           style="fill:#585da4;fill-opacity:1;fill-rule:nonzero;stroke:none"
           id="path222" /></g><g
         id="g224"
         transform="translate(308.333,181.667)"><path
           d="M 0,0 -7.543,7.543"
           style="fill:#decdc0;fill-opacity:1;fill-rule:nonzero;stroke:none"
           id="path226" /></g><g
         id="g228"
         transform="translate(308.333,179.167)"><path
           d="m 0,0 c -0.64,0 -1.279,0.244 -1.768,0.732 l -7.543,7.543 c -0.976,0.977 -0.976,2.559 0,3.536 0.977,0.976 2.559,0.976 3.536,0 L 1.768,4.268 C 2.744,3.291 2.744,1.709 1.768,0.732 1.279,0.244 0.64,0 0,0"
           style="fill:#585da4;fill-opacity:1;fill-rule:nonzero;stroke:none"
           id="path230" /></g><g
         id="g232"
         transform="translate(252,248.083)"><path
           d="m 0,0 c -3.17,0 -5.75,-2.579 -5.75,-5.749 0,-3.171 2.58,-5.75 5.75,-5.75 3.171,0 5.75,2.579 5.75,5.75 C 5.75,-2.579 3.171,0 0,0 m 0,-16.499 c -5.927,0 -10.75,4.822 -10.75,10.75 C -10.75,0.178 -5.927,5 0,5 5.928,5 10.75,0.178 10.75,-5.749 10.75,-11.677 5.928,-16.499 0,-16.499"
           style="fill:#585da4;fill-opacity:1;fill-rule:nonzero;stroke:none"
           id="path234" /></g><g
         id="g236"
         transform="translate(252,248.834)"><path
           d="m 0,0 c -1.381,0 -2.5,1.119 -2.5,2.5 v 38 c 0,1.38 1.119,2.5 2.5,2.5 1.381,0 2.5,-1.12 2.5,-2.5 V 2.5 C 2.5,1.119 1.381,0 0,0"
           style="fill:#585da4;fill-opacity:1;fill-rule:nonzero;stroke:none"
           id="path238" /></g><g
         id="g240"
         transform="translate(345.0937,184.2051)" /><g
         id="g244"
         transform="translate(328.9834,197.2539)" /><g
         id="g248"
         transform="translate(216.9971,234.333)"><path
           d="m 0,0 c -1.202,0 -2.262,0.869 -2.464,2.094 -0.224,1.363 0.698,2.649 2.061,2.873 L 25.931,9.3 C 27.292,9.522 28.579,8.602 28.803,7.239 29.027,5.877 28.105,4.591 26.742,4.366 L 0.409,0.033 C 0.271,0.011 0.135,0 0,0"
           style="fill:#585da4;fill-opacity:1;fill-rule:nonzero;stroke:none"
           id="path250" /></g></g></g></svg>
